<?xml version="1.0" encoding="UTF-8"?>
<svg width="62px" height="69px" viewBox="0 0 62 69" version="1.1" xmlns="http://www.w3.org/2000/svg" xmlns:xlink="http://www.w3.org/1999/xlink">
    <title>btn-failed</title>
    <g id="Page-1" stroke="none" stroke-width="1" fill="none" fill-rule="evenodd">
        <g id="Game-assets" transform="translate(-704.000000, -882.000000)" fill-rule="nonzero">
            <g id="btn-failed" transform="translate(704.000000, 882.000000)">
                <path d="M50.9104614,66.9774986 C37.6502228,68.3927818 24.3497772,68.3927818 11.0895386,66.9774986 C5.80209345,66.4131829 1.62577817,62.2368676 1.0614624,56.9489495 C-0.353820801,43.6887107 -0.353820801,30.3887382 1.0614624,17.1284996 C1.62577817,11.8410545 5.80209345,7.66473921 11.0895386,7.10042344 C24.3497772,5.68514024 37.6497497,5.68514024 50.9099884,7.10042344 C56.1979066,7.66473921 60.3742218,11.8410545 60.9385376,17.1284996 C62.3538208,30.3887382 62.3538208,43.6887107 60.9385376,56.9489495 C60.3742218,62.2368676 56.1983795,66.4131829 50.9104614,66.9774986 Z" id="Path" fill="#D4443D"></path>
                <path d="M50.9104614,60.9385376 C37.6502228,62.3538208 24.3497772,62.3538208 11.0895386,60.9385376 C5.80209345,60.3742218 1.62577817,56.1979066 1.0614624,50.9099884 C-0.353820801,37.6497497 -0.353820801,24.3497772 1.0614624,11.0895386 C1.62577817,5.80209345 5.80209345,1.62577817 11.0895386,1.0614624 C24.3497772,-0.353820801 37.6497497,-0.353820801 50.9099884,1.0614624 C56.1979066,1.62577817 60.3742218,5.80209345 60.9385376,11.0895386 C62.3538208,24.3497772 62.3538208,37.6497497 60.9385376,50.9099884 C60.3742218,56.1979066 56.1983795,60.3742218 50.9104614,60.9385376 Z" id="Path-Copy" fill="#FF6D65"></path>
                <path d="M47.9776038,5.24948318 C36.6114622,4.03683894 25.2115091,4.03683894 13.8453676,5.24948318 C9.31325797,5.73335296 5.73335296,9.31325797 5.24948318,13.8453676 C4.03683894,25.2115091 4.03683894,36.6114622 5.24948318,47.9771469 C5.73335296,52.5097134 9.31325797,56.0896184 13.8453676,56.5730313 C25.2115091,57.7861324 36.6114622,57.7861324 47.9771469,56.5730313 C52.5097134,56.0896184 56.0896184,52.5097134 56.5730313,47.9771469 C57.7861324,36.6114622 57.7861324,25.2115091 56.5730313,13.8453676 C56.0896184,9.31325797 52.5101703,5.73335296 47.9776038,5.24948318 Z" id="Path" fill="#FC4439" opacity="0.499604725"></path>
            </g>
        </g>
    </g>
</svg>