<?xml version="1.0" encoding="UTF-8"?>
<svg width="1440px" height="323px" viewBox="0 0 1440 323" version="1.1" xmlns="http://www.w3.org/2000/svg" xmlns:xlink="http://www.w3.org/1999/xlink">
    <title>Combined Shape</title>
    <g id="Page-1" stroke="none" stroke-width="1" fill="none" fill-rule="evenodd">
        <g id="Game-assets" transform="translate(-364.000000, -171.000000)" fill="#F1F5FE">
            <path d="M552,442.981 L521,443 L521,316.919319 L552,316.919 L552,228.861564 L566.205757,228.861564 L566.205757,185 L568.15012,185 L568.15012,228.861564 L582.355877,228.861564 L582.355,316.919 L596.402,316.919 L596.40291,261.562811 L602.732011,261.562811 L602.732011,246.299145 L610.1,250.186 L610.100712,187.989243 L616.156407,187.989243 L633.785911,172 L651.320548,187.989243 L657.477887,187.989243 L657.477,210.736 L687.439,210.736 L719.281666,176.776494 L719.281666,230.858664 L721,230.858 L721,228.861564 L735.203637,228.861564 L735.203637,185 L737.150216,185 L737.150216,228.861564 L751.356058,228.861564 L751.356,230.858 L778,230.858664 L778,249.607 L800.659851,261.562811 L811.036464,261.562811 L811.036,316.003 L817.771,316.003 L817.771232,210.736787 L832.506,210.736 L832.506378,198.928921 L837.98234,198.928921 L837.98234,186.570418 L879.021,186.57 L895.711724,171 L912.768764,186.998521 L918.760591,186.998521 L918.760591,282.590456 L942.317015,282.590456 L942.317015,215.890253 L978.880998,175.779266 L978.880998,229.892819 L1001.505,229.892 L1001.50584,198.928921 L1006.98404,198.928921 L1006.98404,186.570418 L1049.59716,186.570418 L1049.59716,198.928921 L1055.10843,198.928921 L1055.10843,308.091662 L1091,308.091662 L1091,316.003 L1107,316.003 L1107,228.861564 L1121.20372,228.861564 L1121.20372,185 L1123.15031,185 L1123.15031,228.861564 L1137.35403,228.861564 L1137.354,316.003 L1151.401,316.003 L1151.40123,261.562811 L1157.73041,261.562811 L1157.73041,246.299145 L1168.018,251.727 L1168.01833,186.998521 L1173.93486,186.998521 L1191.15278,171 L1208.27584,186.998521 L1214.29163,186.998521 L1214.291,210.736 L1242.661,210.736 L1274.65252,175.779266 L1274.65252,229.892819 L1277,229.892 L1277,228.834762 L1291.20364,228.834762 L1291.20364,185 L1293.15022,185 L1293.15022,228.834762 L1307.35385,228.834762 L1307.353,229.892 L1332,229.892819 L1332,248.512 L1356.66206,261.516028 L1367.03867,261.516028 L1367.038,316.003 L1373.769,316.003 L1373.76903,210.721061 L1387.509,210.721 L1387.50972,198.928921 L1392.98354,198.928921 L1392.98354,186.570418 L1434.395,186.57 L1451.15278,171 L1468.27805,186.998521 L1474.29384,186.998521 L1474.29384,282.590456 L1497.94449,282.590456 L1497.94449,215.890253 L1534.65252,175.779266 L1534.65252,229.892819 L1557.508,229.892 L1557.50805,198.92041 L1562.98184,198.92041 L1562.98184,186.569458 L1605.59716,186.569458 L1605.59716,198.92041 L1611.10843,198.92041 L1611.10843,308.016447 L1647,308.016447 L1647,443 L1592,442.977 L1592,443 L1647,443 C1706.46,457.718755 1760,474.703212 1804,493.516274 L1804,494 L364,494 L364,493.516274 C408,474.703212 461.54,457.718755 521,443 L552,443 L552,442.981 Z M715.843066,189.759213 L712.278098,193.651824 L712.278098,365.281598 L715.843066,365.281598 L715.843066,189.759213 Z M1269.99784,188.769518 L1266.44395,192.664388 L1266.44395,364.393757 L1269.99784,364.393757 L1269.99784,188.769518 Z M1064.27697,353.06331 L1058.01617,353.06331 L1058.01617,359.31855 L1064.27697,359.31855 L1064.27697,353.06331 Z M1075.89472,353.06331 L1069.63392,353.06331 L1069.63392,359.31855 L1075.89472,359.31855 L1075.89472,353.06331 Z M1620.27917,352.960616 L1614.01617,352.960616 L1614.01617,359.212034 L1620.27917,359.212034 L1620.27917,352.960616 Z M1631.89472,352.960616 L1625.63392,352.960616 L1625.63392,359.212034 L1631.89472,359.212034 L1631.89472,352.960616 Z M1643.51467,352.960616 L1637.24506,352.960616 L1637.24506,359.212034 L1643.51467,359.212034 L1643.51467,352.960616 Z M974.242661,188.769518 L970.702935,192.664388 L970.702,352.481 L974.242,352.481 L974.242661,188.769518 Z M1529.99784,188.769518 L1526.44395,192.664388 L1526.443,352.379 L1529.997,352.379 L1529.99784,188.769518 Z M1064.27697,340.537413 L1058.01617,340.537413 L1058.01617,346.794856 L1064.27697,346.794856 L1064.27697,340.537413 Z M1075.89472,340.537413 L1069.63392,340.537413 L1069.63392,346.794856 L1075.89472,346.794856 L1075.89472,340.537413 Z M1620.27917,340.442373 L1614.01617,340.442373 L1614.01617,346.695992 L1620.27917,346.695992 L1620.27917,340.442373 Z M1631.89472,340.442373 L1625.63392,340.442373 L1625.63392,346.695992 L1631.89472,346.695992 L1631.89472,340.442373 Z M1643.51467,340.442373 L1637.24506,340.442373 L1637.24506,346.695992 L1643.51467,346.695992 L1643.51467,340.442373 Z M1075.89472,328.011516 L1069.63392,328.011516 L1069.63392,334.266756 L1075.89472,334.266756 L1075.89472,328.011516 Z M1064.27697,328.011516 L1058.01617,328.011516 L1058.01617,334.266756 L1064.27697,334.266756 L1064.27697,328.011516 Z M1643.51467,327.92413 L1637.24506,327.92413 L1637.24506,334.175547 L1643.51467,334.175547 L1643.51467,327.92413 Z M1631.89472,327.92413 L1625.63392,327.92413 L1625.63392,334.175547 L1631.89472,334.175547 L1631.89472,327.92413 Z M1620.27917,327.92413 L1614.01617,327.92413 L1614.01617,334.175547 L1620.27917,334.175547 L1620.27917,327.92413 Z M1064.27697,315.485619 L1058.01617,315.485619 L1058.01617,321.740859 L1064.27697,321.740859 L1064.27697,315.485619 Z M1075.89472,315.485619 L1069.63392,315.485619 L1069.63392,321.740859 L1075.89472,321.740859 L1075.89472,315.485619 Z M1620.27917,315.405887 L1614.01617,315.405887 L1614.01617,321.657304 L1620.27917,321.657304 L1620.27917,315.405887 Z M1631.89472,315.405887 L1625.63392,315.405887 L1625.63392,321.657304 L1631.89472,321.657304 L1631.89472,315.405887 Z M1643.51467,315.405887 L1637.24506,315.405887 L1637.24506,321.657304 L1643.51467,321.657304 L1643.51467,315.405887 Z M1087.51467,315.485619 L1081.24506,315.485619 L1081.245,316.003 L1087.514,316.003 L1087.51467,315.485619 Z M1133.93041,306.481598 L1110.49196,306.481598 L1110.49196,309.199544 L1133.93041,309.199544 L1133.93041,306.481598 Z M578.934503,306.481598 L555.496327,306.481598 L555.496327,309.199544 L578.934503,309.199544 L578.934503,306.481598 Z M578.934503,300.195523 L555.496327,300.195523 L555.496327,302.911266 L578.934503,302.911266 L578.934503,300.195523 Z M1133.93041,300.195523 L1110.49196,300.195523 L1110.49196,302.911266 L1133.93041,302.911266 L1133.93041,300.195523 Z M578.934503,293.898435 L555.496327,293.898435 L555.496327,296.614178 L578.934503,296.614178 L578.934503,293.898435 Z M1133.93041,293.898435 L1110.49196,293.898435 L1110.49196,296.614178 L1133.93041,296.614178 L1133.93041,293.898435 Z M578.934503,287.61236 L555.496327,287.61236 L555.496327,290.328103 L578.934503,290.328103 L578.934503,287.61236 Z M1133.93041,287.61236 L1110.49196,287.61236 L1110.49196,290.328103 L1133.93041,290.328103 L1133.93041,287.61236 Z M1133.93041,281.326285 L1110.49196,281.326285 L1110.49196,284.042028 L1133.93041,284.042028 L1133.93041,281.326285 Z M578.934503,281.326285 L555.496327,281.326285 L555.496327,284.042028 L578.934503,284.042028 L578.934503,281.326285 Z M1133.93041,275.029197 L1110.49196,275.029197 L1110.49196,277.74494 L1133.93041,277.74494 L1133.93041,275.029197 Z M578.934503,275.029197 L555.496327,275.029197 L555.496327,277.74494 L578.934503,277.74494 L578.934503,275.029197 Z M578.934503,268.740919 L555.496327,268.740919 L555.496327,271.458864 L578.934503,271.458864 L578.934503,268.740919 Z M1133.93041,268.740919 L1110.49196,268.740919 L1110.49196,271.458864 L1133.93041,271.458864 L1133.93041,268.740919 Z M1237.944,264.194 L1235.6668,264.194857 L1235.6668,271.159318 L1237.944,271.159 L1237.944,264.194 Z M1216.12814,264.194857 L1214.291,264.194 L1214.291,271.159 L1216.12814,271.159318 L1216.12814,264.194857 Z M830.127492,264.194857 L823.148024,264.194857 L823.148024,271.159318 L830.127492,271.159318 L830.127492,264.194857 Z M674.382462,264.194857 L667.411853,264.194857 L667.411853,271.159318 L674.382462,271.159318 L674.382462,264.194857 Z M681.693,264.194 L680.667473,264.194857 L680.667473,271.159318 L681.693,271.159 L681.693,264.194 Z M661.129046,264.194857 L657.477,264.194 L657.477,271.159 L661.129046,271.159318 L661.129046,264.194857 Z M1229.38172,264.194857 L1222.41102,264.194857 L1222.41102,271.159318 L1229.38172,271.159318 L1229.38172,264.194857 Z M1386.12749,264.146466 L1379.14802,264.146466 L1379.14802,271.106671 L1386.12749,271.106671 L1386.12749,264.146466 Z M1133.93041,262.452641 L1110.49196,262.452641 L1110.49196,265.170587 L1133.93041,265.170587 L1133.93041,262.452641 Z M578.934503,262.452641 L555.496327,262.452641 L555.496327,265.170587 L578.934503,265.170587 L578.934503,262.452641 Z M648.77,261.64 L642.038,261.64 L642.038,265.136 L648.77,265.136 L648.77,261.64 Z M912.768764,260.692287 L886.106,260.692 L886.106,264.19 L912.768764,264.190172 L912.768764,260.692287 Z M1203.769,260.692 L1185.011,260.692 L1186.66033,261.562811 L1197.037,261.562811 L1197.037,264.19 L1203.769,264.19 L1203.769,260.692 Z M1468.27805,260.692287 L1441.108,260.692 L1441.108,264.19 L1468.27805,264.190172 L1468.27805,260.692287 Z M1237.944,252.567 L1235.6668,252.5676 L1235.6668,259.540871 L1237.944,259.54 L1237.944,252.567 Z M1229.38172,252.5676 L1222.41102,252.5676 L1222.41102,259.540871 L1229.38172,259.540871 L1229.38172,252.5676 Z M1216.12814,252.5676 L1214.291,252.567 L1214.291,259.54 L1216.12814,259.540871 L1216.12814,252.5676 Z M661.129046,252.5676 L657.477,252.567 L657.477,259.54 L661.129046,259.540871 L661.129046,252.5676 Z M674.382462,252.5676 L667.411853,252.5676 L667.411853,259.540871 L674.382462,259.540871 L674.382462,252.5676 Z M681.693,252.567 L680.667473,252.5676 L680.667473,259.540871 L681.693,259.54 L681.693,252.567 Z M830.127492,252.5676 L823.148024,252.5676 L823.148024,259.540871 L830.127492,259.540871 L830.127492,252.5676 Z M1386.12749,252.526314 L1379.14802,252.526314 L1379.14802,259.495323 L1386.12749,259.495323 L1386.12749,252.526314 Z M578.934503,256.157755 L555.496327,256.157755 L555.496327,258.873499 L578.934503,258.873499 L578.934503,256.157755 Z M1133.93041,256.157755 L1110.49196,256.157755 L1110.49196,258.873499 L1133.93041,258.873499 L1133.93041,256.157755 Z M648.77,254.666 L619.639807,254.666192 L619.639,255.219 L625.217,258.162 L648.77,258.162 L648.77,254.666 Z M1468.27805,253.714162 L1441.108,253.714 L1441.108,257.212 L1468.27805,257.212047 L1468.27805,253.714162 Z M1203.769,253.714 L1174.03413,253.714162 L1174.034,254.901 L1178.415,257.212 L1203.769,257.212 L1203.769,253.714 Z M912.768764,253.714162 L886.106,253.714 L886.106,257.212 L912.768764,257.212047 L912.768764,253.714162 Z M1133.93041,249.869478 L1110.49196,249.869478 L1110.49196,252.585221 L1133.93041,252.585221 L1133.93041,249.869478 Z M578.934503,249.869478 L555.496327,249.869478 L555.496327,252.585221 L578.934503,252.585221 L578.934503,249.869478 Z M648.77,247.698 L619.639807,247.698727 L619.639807,251.185766 L648.77,251.185 L648.77,247.698 Z M1468.27805,246.742653 L1441.108,246.742 L1441.108,250.231 L1468.27805,250.231716 L1468.27805,246.742653 Z M1203.769,246.742 L1174.03413,246.742653 L1174.03413,250.231716 L1203.769,250.231 L1203.769,246.742 Z M912.768764,246.742653 L886.106,246.742 L886.106,250.231 L912.768764,250.231716 L912.768764,246.742653 Z M681.693,240.953 L680.667473,240.953559 L680.667473,247.915817 L681.693,247.915 L681.693,240.953 Z M1237.944,240.953 L1235.6668,240.953559 L1235.6668,247.915817 L1237.944,247.915 L1237.944,240.953 Z M661.129046,240.953559 L657.477,240.953 L657.477,247.915 L661.129046,247.915817 L661.129046,240.953559 Z M1229.38172,240.953559 L1222.41102,240.953559 L1222.41102,247.915817 L1229.38172,247.915817 L1229.38172,240.953559 Z M674.382462,240.953559 L667.411853,240.953559 L667.411853,247.915817 L674.382462,247.915817 L674.382462,240.953559 Z M1216.12814,240.953559 L1214.291,240.953 L1214.291,247.915 L1216.12814,247.915817 L1216.12814,240.953559 Z M830.127492,240.953559 L823.148024,240.953559 L823.148024,247.915817 L830.127492,247.915817 L830.127492,240.953559 Z M1386.12749,240.919369 L1379.14802,240.919369 L1379.14802,247.877372 L1386.12749,247.877372 L1386.12749,240.919369 Z M578.934503,243.583402 L555.496327,243.583402 L555.496327,246.299145 L578.934503,246.299145 L578.934503,243.583402 Z M1133.93041,243.583402 L1110.49196,243.583402 L1110.49196,246.299145 L1133.93041,246.299145 L1133.93041,243.583402 Z M648.77,240.722 L619.639807,240.722444 L619.639807,244.211687 L648.77,244.211 L648.77,240.722 Z M1203.769,239.762 L1174.03413,239.762323 L1174.03413,243.253591 L1203.769,243.253 L1203.769,239.762 Z M1468.27805,239.762323 L1441.108,239.762 L1441.108,243.253 L1468.27805,243.253591 L1468.27805,239.762323 Z M912.768764,239.762323 L886.106,239.762 L886.106,243.253 L912.768764,243.253591 L912.768764,239.762323 Z M578.934503,237.286314 L555.496327,237.286314 L555.496327,240.002057 L578.934503,240.002057 L578.934503,237.286314 Z M1133.93041,237.286314 L1110.49196,237.286314 L1110.49196,240.002057 L1133.93041,240.002057 L1133.93041,237.286314 Z M648.77,233.748 L619.639807,233.748366 L619.639807,237.242018 L648.77,237.242 L648.77,233.748 Z M830.127492,229.328504 L823.148024,229.328504 L823.148024,236.301775 L830.127492,236.301775 L830.127492,229.328504 Z M1237.944,229.328 L1235.6668,229.328504 L1235.6668,236.301775 L1237.944,236.301 L1237.944,229.328 Z M661.129046,229.328504 L657.477,229.328 L657.477,236.301 L661.129046,236.301775 L661.129046,229.328504 Z M674.382462,229.328504 L667.411853,229.328504 L667.411853,236.301775 L674.382462,236.301775 L674.382462,229.328504 Z M1229.38172,229.328504 L1222.41102,229.328504 L1222.41102,236.301775 L1229.38172,236.301775 L1229.38172,229.328504 Z M681.693,229.328 L680.667473,229.328504 L680.667473,236.301775 L681.693,236.301 L681.693,229.328 Z M1216.12814,229.328504 L1214.291,229.328 L1214.291,236.301 L1216.12814,236.301775 L1216.12814,229.328504 Z M1468.27805,232.784197 L1441.108,232.784 L1441.108,236.279 L1468.27805,236.279876 L1468.27805,232.784197 Z M1203.769,232.784 L1174.03413,232.784197 L1174.03413,236.279876 L1203.769,236.279 L1203.769,232.784 Z M912.768764,232.784197 L886.106,232.784 L886.106,236.279 L912.768764,236.279876 L912.768764,232.784197 Z M1386.12749,229.301418 L1379.14802,229.301418 L1379.14802,236.270427 L1386.12749,236.270427 L1386.12749,229.301418 Z M578.934503,231.000239 L555.496327,231.000239 L555.496327,233.715982 L578.934503,233.715982 L578.934503,231.000239 Z M1133.93041,231.000239 L1110.49196,231.000239 L1110.49196,233.715982 L1133.93041,233.715982 L1133.93041,231.000239 Z M648.77,226.772 L619.639807,226.772083 L619.639807,230.267939 L648.77,230.267 L648.77,226.772 Z M1468.27805,225.803867 L1441.108,225.803 L1441.108,229.301 L1468.27805,229.301751 L1468.27805,225.803867 Z M1203.769,225.803 L1174.03413,225.803867 L1174.03413,229.301751 L1203.769,229.301 L1203.769,225.803 Z M912.768764,225.803867 L886.106,225.803 L886.106,229.301 L912.768764,229.301751 L912.768764,225.803867 Z M1216.12814,217.701247 L1214.291,217.701 L1214.291,224.674 L1216.12814,224.674518 L1216.12814,217.701247 Z M1237.944,217.701 L1235.6668,217.701247 L1235.6668,224.674518 L1237.944,224.674 L1237.944,217.701 Z M1229.38172,217.701247 L1222.41102,217.701247 L1222.41102,224.674518 L1229.38172,224.674518 L1229.38172,217.701247 Z M674.382462,217.701247 L667.411853,217.701247 L667.411853,224.674518 L674.382462,224.674518 L674.382462,217.701247 Z M681.693,217.701 L680.667473,217.701247 L680.667473,224.674518 L681.693,224.674 L681.693,217.701 Z M830.127492,217.701247 L823.148024,217.701247 L823.148024,224.674518 L830.127492,224.674518 L830.127492,217.701247 Z M661.129046,217.701247 L657.477,217.701 L657.477,224.674 L661.129046,224.674518 L661.129046,217.701247 Z M1386.12749,217.681265 L1379.14802,217.681265 L1379.14802,224.650275 L1386.12749,224.650275 L1386.12749,217.681265 Z M648.77,219.804 L619.639807,219.804618 L619.639807,223.291657 L648.77,223.291 L648.77,219.804 Z M912.768764,218.832358 L886.106,218.832 L886.106,222.321 L912.768764,222.321421 L912.768764,218.832358 Z M1203.769,218.832 L1174.03413,218.832358 L1174.03413,222.321421 L1203.769,222.321 L1203.769,218.832 Z M1468.27805,218.832358 L1441.108,218.832 L1441.108,222.321 L1468.27805,222.321421 L1468.27805,218.832358 Z M648.77,212.83 L619.639807,212.830539 L619.639807,216.317578 L648.77,216.317 L648.77,212.83 Z M1203.769,211.854 L1174.03413,211.854233 L1174.03413,215.343295 L1203.769,215.343 L1203.769,211.854 Z M912.768764,211.854233 L886.106,211.854 L886.106,215.343 L912.768764,215.343295 L912.768764,211.854233 Z M1468.27805,211.854233 L1441.108,211.854 L1441.108,215.343 L1468.27805,215.343295 L1468.27805,211.854233 Z M653.969206,205.854257 L619.639807,205.854257 L619.639807,209.3435 L653.969206,209.3435 L653.969206,205.854257 Z M912.768764,204.873902 L886.106,204.873 L886.106,208.365 L912.768764,208.36517 L912.768764,204.873902 Z M1208.27584,204.873902 L1174.03413,204.873902 L1174.03413,208.36517 L1208.27584,208.36517 L1208.27584,204.873902 Z M1468.27805,204.873902 L1441.108,204.873 L1441.108,208.365 L1468.27805,208.36517 L1468.27805,204.873902 Z M653.969206,198.880179 L619.639807,198.880179 L619.639807,202.376034 L653.969206,202.376034 L653.969206,198.880179 Z M1208.27584,197.895777 L1174.03413,197.895777 L1174.03413,201.393661 L1208.27584,201.393661 L1208.27584,197.895777 Z M912.768764,197.895777 L880.597,197.895 L880.597406,198.928921 L886.106435,198.928921 L886.106,201.393 L912.768764,201.393661 L912.768764,197.895777 Z M1468.27805,197.895777 L1435.599,197.895 L1435.59912,198.928921 L1441.10821,198.928921 L1441.108,201.393 L1468.27805,201.393661 L1468.27805,197.895777 Z M653.969206,191.912713 L619.639807,191.912713 L619.639807,195.399752 L653.969206,195.399752 L653.969206,191.912713 Z M1468.27805,190.924268 L1435.599,190.924 L1435.599,194.413 L1468.27805,194.41333 L1468.27805,190.924268 Z M1208.27584,190.924268 L1174.03413,190.924268 L1174.03413,194.41333 L1208.27584,194.41333 L1208.27584,190.924268 Z M912.768764,190.924268 L880.597,190.924 L880.597,194.413 L912.768764,194.41333 L912.768764,190.924268 Z" id="Combined-Shape"></path>
        </g>
    </g>
</svg>