<?xml version="1.0" encoding="UTF-8"?>
<svg width="393px" height="64px" viewBox="0 0 393 64" version="1.1" xmlns="http://www.w3.org/2000/svg" xmlns:xlink="http://www.w3.org/1999/xlink">
    <title>Fill 8</title>
    <defs>
        <path d="M1496.19527,606 C1513.58486,606 1529.7576,620.68883 1531.60003,638.111702 C1537.06925,630.909574 1545.48689,625.425532 1554.4826,625.672872 C1563.47831,625.922872 1572.37635,633.25266 1572.47666,642.319149 C1581.99764,631.635638 1599.53241,629.68617 1611.87247,635.984043 C1617.43408,638.821809 1622.26716,642.944149 1626.35852,647.651596 C1629.91668,651.75 1632.89413,656.731383 1637.87767,659.24734 C1642.9008,661.789894 1675.75309,664.045213 1686.56483,664.795213 C1711.51947,666.526596 1736.51371,667.694149 1761.50795,668.656915 C1775.66933,669.204787 1789.83334,669.683511 1804,670 C1742.26537,670 1429.75162,669.18617 1411,669.18617 C1412.37786,658.970745 1419.07185,649.638298 1428.26817,645.114362 C1438.21941,640.215426 1448.27359,641.928191 1457.88696,646.119681 C1457.44087,642.56383 1461.13629,606 1496.19527,606" id="path-1"></path>
    </defs>
    <g id="Page-1" stroke="none" stroke-width="1" fill="none" fill-rule="evenodd">
        <g id="Game-assets" transform="translate(-1411.000000, -606.000000)">
            <mask id="mask-2" fill="white">
                <use xlink:href="#path-1"></use>
            </mask>
            <use id="Fill-8" fill="#EEF2FD" xlink:href="#path-1"></use>
        </g>
    </g>
</svg>