<?xml version="1.0" encoding="UTF-8"?>
<svg width="62px" height="68px" viewBox="0 0 62 68" version="1.1" xmlns="http://www.w3.org/2000/svg" xmlns:xlink="http://www.w3.org/1999/xlink">
    <title>btn-ok</title>
    <g id="Page-1" stroke="none" stroke-width="1" fill="none" fill-rule="evenodd">
        <g id="Game-assets" transform="translate(-797.000000, -882.000000)" fill-rule="nonzero">
            <g id="btn-ok" transform="translate(797.000000, 882.000000)">
                <path d="M50.7782265,66.8192167 C37.55243,68.2308239 24.286531,68.2308239 11.0607346,66.8192167 C5.78702307,66.2563667 1.62155537,62.090899 1.05870536,56.8167157 C-0.352901786,43.5909192 -0.352901786,30.3254921 1.05870536,17.0996956 C1.62155537,11.8259841 5.78702307,7.66051641 11.0607346,7.0976664 C24.286531,5.68605925 37.5519581,5.68605925 50.7777547,7.0976664 C56.051938,7.66051641 60.2174057,11.8259841 60.7802557,17.0996956 C62.1918628,30.3254921 62.1918628,43.5909192 60.7802557,56.8167157 C60.2174057,62.090899 56.0524097,66.2563667 50.7782265,66.8192167 Z" id="Path" fill="#08A05C"></path>
                <path d="M50.7782265,60.7802557 C37.55243,62.1918628 24.286531,62.1918628 11.0607346,60.7802557 C5.78702307,60.2174057 1.62155537,56.051938 1.05870536,50.7777547 C-0.352901786,37.5519581 -0.352901786,24.286531 1.05870536,11.0607346 C1.62155537,5.78702307 5.78702307,1.62155537 11.0607346,1.05870536 C24.286531,-0.352901786 37.5519581,-0.352901786 50.7777547,1.05870536 C56.051938,1.62155537 60.2174057,5.78702307 60.7802557,11.0607346 C62.1918628,24.286531 62.1918628,37.5519581 60.7802557,50.7777547 C60.2174057,56.051938 56.0524097,60.2174057 50.7782265,60.7802557 Z" id="Path-Copy" fill="#0AC974"></path>
                <path d="M48.0661752,5.33805461 C36.7000337,4.12541037 25.3000806,4.12541037 13.933939,5.33805461 C9.4018294,5.82192439 5.82192439,9.4018294 5.33805461,13.933939 C4.12541037,25.3000806 4.12541037,36.7000337 5.33805461,48.0657183 C5.82192439,52.5982848 9.4018294,56.1781898 13.933939,56.6616027 C25.3000806,57.8747039 36.7000337,57.8747039 48.0657183,56.6616027 C52.5982848,56.1781898 56.1781898,52.5982848 56.6616027,48.0657183 C57.8747039,36.7000337 57.8747039,25.3000806 56.6616027,13.933939 C56.1781898,9.4018294 52.5987417,5.82192439 48.0661752,5.33805461 Z" id="Path" fill="#6CDEAB" opacity="0.499604725"></path>
            </g>
        </g>
    </g>
</svg>