<?xml version="1.0" encoding="UTF-8"?>
<svg width="62px" height="68px" viewBox="0 0 62 68" version="1.1" xmlns="http://www.w3.org/2000/svg" xmlns:xlink="http://www.w3.org/1999/xlink">
    <title>btn-w copy 5</title>
    <g id="Page-1" stroke="none" stroke-width="1" fill="none" fill-rule="evenodd">
        <g id="Game-assets" transform="translate(-890.000000, -882.000000)">
            <g id="btn-w" transform="translate(890.000000, 882.000000)">
                <g id="btn-white">
                    <path d="M50.7782265,66.6232659 C37.55243,68.0307335 24.286531,68.0307335 11.0607346,66.6232659 C5.78702307,66.0620665 1.62155537,61.9088143 1.05870536,56.6500978 C-0.352901786,43.4630866 -0.352901786,30.236561 1.05870536,17.0495499 C1.62155537,11.7913038 5.78702307,7.63805155 11.0607346,7.07685213 C24.286531,5.66938459 37.5519581,5.66938459 50.7777547,7.07685213 C56.051938,7.63805155 60.2174057,11.7913038 60.7802557,17.0495499 C62.1918628,30.236561 62.1918628,43.4630866 60.7802557,56.6500978 C60.2174057,61.9088143 56.0524097,66.0620665 50.7782265,66.6232659 Z" id="Path" fill="#D2D2D2" fill-rule="nonzero"></path>
                    <path d="M50.7782265,60.6020145 C37.55243,62.009482 24.286531,62.009482 11.0607346,60.6020145 C5.78702307,60.040815 1.62155537,55.8875628 1.05870536,50.6288463 C-0.352901786,37.4418351 -0.352901786,24.2153095 1.05870536,11.0282984 C1.62155537,5.77005233 5.78702307,1.61680007 11.0607346,1.05560065 C24.286531,-0.351866883 37.5519581,-0.351866883 50.7777547,1.05560065 C56.051938,1.61680007 60.2174057,5.77005233 60.7802557,11.0282984 C62.1918628,24.2153095 62.1918628,37.4418351 60.7802557,50.6288463 C60.2174057,55.8875628 56.0524097,60.040815 50.7782265,60.6020145 Z" id="Path-Copy" fill="#FFFFFF" fill-rule="nonzero"></path>
                    <path d="M47.9776038,5.2340888 C36.6114622,4.0250007 25.2115091,4.0250007 13.8453676,5.2340888 C9.31325797,5.71653961 5.73335296,9.28594636 5.24948318,13.8047653 C4.03683894,25.1375751 4.03683894,36.5040972 5.24948318,47.8364515 C5.73335296,52.355726 9.31325797,55.9251327 13.8453676,56.407128 C25.2115091,57.6166716 36.6114622,57.6166716 47.9771469,56.407128 C52.5097134,55.9251327 56.0896184,52.355726 56.5730313,47.8364515 C57.7861324,36.5040972 57.7861324,25.1375751 56.5730313,13.8047653 C56.0896184,9.28594636 52.5101703,5.71653961 47.9776038,5.2340888 Z" id="Path" fill="#EAEAEA" fill-rule="nonzero" opacity="0.499604725"></path>
                    <text id="و" font-family="Vazir-Black, Vazir" font-size="31.0537634" font-weight="700"></text>
                </g>
            </g>
        </g>
    </g>
</svg>