<?xml version="1.0" encoding="UTF-8"?>
<svg width="14px" height="14px" viewBox="0 0 14 14" version="1.1" xmlns="http://www.w3.org/2000/svg" xmlns:xlink="http://www.w3.org/1999/xlink">
    <title>Close</title>
    <g id="Page-1" stroke="none" stroke-width="1" fill="none" fill-rule="evenodd">
        <g id="Game-assets" transform="translate(-616.000000, -1046.000000)">
            <g id="Close" transform="translate(611.000000, 1041.000000)">
                <g id="menu">
                    <rect id="Rectangle" x="0" y="0" width="24" height="24"></rect>
                    <path d="M12.8174,11.9926 L18.5294,6.2806 C18.8224,5.9876 18.8224,5.5126 18.5294,5.2196 C18.2364,4.9266 17.7624,4.9266 17.4694,5.2196 L11.7564,10.9316 L6.2804,5.4556 C5.9874,5.1626 5.5124,5.1626 5.2194,5.4556 C4.9264,5.7486 4.9264,6.2236 5.2194,6.5166 L10.6964,11.9926 L5.3864,17.3026 C5.0934,17.5956 5.0934,18.0706 5.3864,18.3636 C5.5324,18.5096 5.7244,18.5826 5.9164,18.5826 C6.1084,18.5826 6.3004,18.5096 6.4464,18.3636 L11.7564,13.0536 L17.3024,18.5996 C17.4494,18.7456 17.6414,18.8196 17.8334,18.8196 C18.0254,18.8196 18.2164,18.7456 18.3634,18.5996 C18.6564,18.3066 18.6564,17.8316 18.3634,17.5386 L12.8174,11.9926 Z" id="Fill-1" fill="#C7CED7"></path>
                </g>
            </g>
        </g>
    </g>
</svg>