<?xml version="1.0" encoding="UTF-8"?>
<svg width="297px" height="49px" viewBox="0 0 297 49" version="1.1" xmlns="http://www.w3.org/2000/svg" xmlns:xlink="http://www.w3.org/1999/xlink">
    <title>Fill 3</title>
    <g id="Page-1" stroke="none" stroke-width="1" fill="none" fill-rule="evenodd">
        <g id="Game-assets" transform="translate(-876.000000, -614.000000)" fill="#EEF2FD">
            <path d="M1170.93259,659.051077 C1175.93391,646.779322 1171.50621,631.706894 1161.47449,623.035629 C1151.44012,614.361724 1136.75072,611.978116 1124.0148,615.68947 C1111.27888,619.400824 1100.56516,628.713526 1093.7954,640.108915 C1091.69389,633.979637 1088.52181,627.787007 1082.94951,624.468961 C1075.20962,619.862764 1064.8369,622.278048 1057.75786,627.84508 C1050.67618,633.412111 1046.15067,641.52113 1041.8102,649.408418 C1033.58128,642.888471 1024.88713,636.157352 1014.54877,634.309594 C999.256673,631.577551 984.511762,640.024446 970.581019,646.887548 C944.855405,659.56317 922.090404,657.213877 876,663 C968.973829,657.64942 1170.93259,659.051077 1170.93259,659.051077" id="Fill-3"></path>
        </g>
    </g>
</svg>