<?xml version="1.0" encoding="UTF-8"?>
<svg width="18px" height="18px" viewBox="0 0 18 18" version="1.1" xmlns="http://www.w3.org/2000/svg" xmlns:xlink="http://www.w3.org/1999/xlink">
    <title>instagrambtn</title>
    <g id="Page-1" stroke="none" stroke-width="1" fill="none" fill-rule="evenodd">
        <g id="Game-assets" transform="translate(-488.000000, -1044.000000)">
            <g id="instagrambtn" transform="translate(487.000000, 1043.000000)">
                <rect id="Rectangle" x="0" y="0" width="20" height="20"></rect>
                <g id="Group" stroke-width="1" fill-rule="evenodd" transform="translate(1.666667, 1.666667)" fill="#FFFFFF">
                    <path d="M12.8787879,0 C14.9707756,0 16.6666667,1.6958911 16.6666667,3.78787879 L16.6666667,12.8787879 C16.6666667,14.9707756 14.9707756,16.6666667 12.8787879,16.6666667 L3.78787879,16.6666667 C1.6958911,16.6666667 0,14.9707756 0,12.8787879 L0,3.78787879 C0,1.6958911 1.6958911,0 3.78787879,0 L12.8787879,0 Z M12.8787879,1.13636364 L3.78787879,1.13636364 C2.32348741,1.13636364 1.13636364,2.32348741 1.13636364,3.78787879 L1.13636364,12.8787879 C1.13636364,14.3431793 2.32348741,15.530303 3.78787879,15.530303 L12.8787879,15.530303 C14.3431793,15.530303 15.530303,14.3431793 15.530303,12.8787879 L15.530303,3.78787879 C15.530303,2.32348741 14.3431793,1.13636364 12.8787879,1.13636364 Z M8.33333333,3.78787879 C10.8437186,3.78787879 12.8787879,5.82294811 12.8787879,8.33333333 C12.8787879,10.8437186 10.8437186,12.8787879 8.33333333,12.8787879 C5.82294811,12.8787879 3.78787879,10.8437186 3.78787879,8.33333333 C3.78787879,5.82294811 5.82294811,3.78787879 8.33333333,3.78787879 Z M8.33333333,4.92424242 C6.45054441,4.92424242 4.92424242,6.45054441 4.92424242,8.33333333 C4.92424242,10.2161223 6.45054441,11.7424242 8.33333333,11.7424242 C10.2161223,11.7424242 11.7424242,10.2161223 11.7424242,8.33333333 C11.7424242,6.45054441 10.2161223,4.92424242 8.33333333,4.92424242 Z M13.2575758,2.27272727 C13.8851721,2.27272727 14.3939394,2.7814946 14.3939394,3.40909091 C14.3939394,4.03668722 13.8851721,4.54545455 13.2575758,4.54545455 C12.6299795,4.54545455 12.1212121,4.03668722 12.1212121,3.40909091 C12.1212121,2.7814946 12.6299795,2.27272727 13.2575758,2.27272727 Z" id="Combined-Shape" fill-rule="nonzero"></path>
                </g>
            </g>
        </g>
    </g>
</svg>