<?xml version="1.0" encoding="UTF-8"?>
<svg width="162px" height="42px" viewBox="0 0 162 42" version="1.1" xmlns="http://www.w3.org/2000/svg" xmlns:xlink="http://www.w3.org/1999/xlink">
    <title>LOGO</title>
    <g id="Page-1" stroke="none" stroke-width="1" fill="none" fill-rule="evenodd">
        <g id="Game-assets" transform="translate(-179.000000, -1103.000000)">
            <g id="LOGO" transform="translate(179.000000, 1103.000000)">
                <path d="M109.496911,28.680419 L110.802009,28.6960059 C111.125799,28.700383 111.427029,28.5781433 111.655906,28.3533609 C111.884729,28.128632 112.01085,27.8287976 112.01085,27.5090526 C112.01085,26.8544562 111.474942,26.3219393 110.816297,26.3219393 L109.529194,26.3219393 L109.496911,28.680419 Z M115,34.9879362 L112.585701,34.9879362 L112.1287,32.8105208 C112.054681,32.4581073 111.904066,32.1233626 111.673202,31.8458944 C111.636837,31.8022298 111.598861,31.7599529 111.559274,31.7192242 L110.902079,31.0429555 C110.859376,31.0439163 110.816673,31.0450373 110.773755,31.0445035 L109.464737,31.0289166 L109.410592,34.9879362 L107.047322,34.956015 L107.197669,23.9732281 L110.816297,23.9732281 C112.77816,23.9732281 114.374282,25.5594089 114.374282,27.5090526 C114.374282,28.461455 113.998818,29.3546592 113.317076,30.0240953 C113.296557,30.0441661 113.275286,30.0630625 113.254445,30.0826529 L113.259333,30.0876706 C113.768545,30.6117535 114.148896,31.2575957 114.359188,31.9555365 C114.368749,31.987511 114.377075,32.0199126 114.383896,32.052581 L115,34.9879362 Z M49.3251329,28.680419 L50.6302304,28.6960059 C50.9540205,28.700383 51.2551969,28.5781433 51.4841274,28.3533609 C51.7130042,28.128632 51.8390181,27.8287976 51.8390181,27.5090526 C51.8390181,26.8544562 51.3032175,26.3219393 50.6445722,26.3219393 L49.3574153,26.3219393 L49.3251329,28.680419 Z M54.2121717,32.052581 L54.8282215,34.9879362 L52.4139765,34.9879362 L51.9098673,32.5864324 C51.8051243,32.2627907 51.6251276,31.9638104 51.3874953,31.7192242 L50.730354,31.0429555 C50.6875974,31.0439163 50.6449482,31.0450373 50.601923,31.0445035 L49.2930118,31.0289166 L49.238814,34.9879362 L46.8755976,34.956015 L47.025944,23.9732281 L50.6445722,23.9732281 C52.6063813,23.9732281 54.2024494,25.5594089 54.2024494,27.5090526 C54.2024494,28.461455 53.8270398,29.3546592 53.1452973,30.0240953 C53.1248321,30.0441661 53.1035613,30.0630625 53.0826664,30.0826529 L53.0875544,30.0876706 C53.5968201,30.6117535 53.9771714,31.2575957 54.1874094,31.9555365 C54.1969705,31.987511 54.2052962,32.0199126 54.2121717,32.052581 L54.2121717,32.052581 Z M10.0370629,28.680419 L11.3421604,28.6960059 C11.6659505,28.700383 11.9671268,28.5781433 12.1960574,28.3533609 C12.4249342,28.128632 12.5509481,27.8287976 12.5509481,27.5090526 C12.5509481,26.8544562 12.0151474,26.3219393 11.3564484,26.3219393 L10.0693452,26.3219393 L10.0370629,28.680419 Z M14.9240479,32.052581 L15.5401515,34.9879362 L13.1258527,34.9879362 L12.6217973,32.5864324 C12.5170006,32.2627907 12.3370038,31.9638104 12.0993715,31.7192242 L11.4422839,31.0429555 C11.3995273,31.0439163 11.3568244,31.0450373 11.3138529,31.0445035 L10.004888,31.0289166 L9.95074394,34.9879362 L7.58747381,34.956015 L7.73782027,23.9732281 L11.3564484,23.9732281 C13.3183112,23.9732281 14.9143793,25.5594089 14.9143793,27.5090526 C14.9143793,28.461455 14.538916,29.3546592 13.8572273,30.0240953 C13.8367621,30.0441661 13.8154375,30.0630625 13.7945963,30.0826529 L13.7994843,30.0876706 C14.3086964,30.6117535 14.6890476,31.2575957 14.8992856,31.9555365 C14.9089005,31.987511 14.9171725,32.0199126 14.9240479,32.052581 L14.9240479,32.052581 Z M22.1678036,24.2866743 L18.9938229,34.9881497 L21.4575925,34.9881497 L23.9296342,26.6468087 L26.3287318,34.9881497 L28.7563517,34.9881497 L28.7840683,34.9797691 L25.6772305,24.2866743 L22.1678036,24.2866743 Z M76.8940216,30.4506532 L73.406725,23.9776053 L72.6946339,23.9776053 L72.6946339,23.9663955 L70.3312027,23.9663955 L70.3312027,34.9480615 L72.6946339,34.9480615 L72.6946339,27.6665764 L76.6349036,34.9480615 L76.8940216,34.9480615 L77.909169,34.9480615 L79.2574529,34.9480615 L79.2574529,23.9663955 L76.8940216,23.9663955 L76.8940216,30.4506532 Z M96.3423752,23.9663955 L95.5718967,23.9663955 L95.5718967,34.9480615 L97.9353279,34.9480615 L97.9353279,34.944058 L102.339958,34.944058 L102.339958,32.5953468 L97.9353279,32.5953468 L97.9353279,30.5135346 L102.339958,30.5135346 L102.339958,28.1648235 L97.9353279,28.1648235 L97.9353279,26.2965305 L102.339958,26.2965305 L102.339958,23.9478193 L96.3423752,23.9478193 L96.3423752,23.9663955 Z M59.8622227,23.9663955 L59.0917441,23.9663955 L59.0917441,34.9480615 L61.4551754,34.9480615 L61.4551754,34.944058 L65.8598056,34.944058 L65.8598056,32.5953468 L61.4551754,32.5953468 L61.4551754,30.5135346 L65.8598056,30.5135346 L65.8598056,28.1648235 L61.4551754,28.1648235 L61.4551754,26.3151067 L65.8598056,26.3151067 L65.8598056,23.9663955 L61.4551754,23.9663955 L59.8622227,23.9663955 Z M83.2115808,26.2431507 L86.2706666,26.2431507 L86.2706666,34.9480615 L88.6340979,34.9480615 L88.6340979,26.2431507 L91.7409357,26.2431507 L91.7409357,23.8944395 L83.2115808,23.8944395 L83.2115808,26.2431507 Z M39.6197024,30.5198335 L36.0786378,23.976164 L35.4202611,23.976164 L35.4202611,23.9663955 L33.0568298,23.9663955 L33.0568298,34.9480615 L35.4202611,34.9480615 L35.4202611,27.7184616 L39.3605307,35 L40.6347962,35 L40.7319117,34.9480615 L41.9831337,34.9480615 L41.9831337,23.9663955 L39.6197024,23.9663955 L39.6197024,30.5198335 Z M0.247193425,34.9480615 L2.6106247,34.9480615 L2.6106247,23.958869 L0.247193425,23.958869 L0.247193425,34.9480615 Z M42.600043,7 C41.858409,7 41.2571843,7.59748009 41.2571843,8.33449498 C41.2571843,9.07150987 41.858409,9.66898996 42.600043,9.66898996 C43.341677,9.66898996 43.9429016,9.07150987 43.9429016,8.33449498 C43.9429016,7.59748009 43.341677,7 42.600043,7 L42.600043,7 Z M26.1012515,9.66898996 C26.6356556,9.66898996 27.0970618,9.35874657 27.3132621,8.90966232 C27.5294623,9.35874657 27.9908686,9.66898996 28.5252726,9.66898996 C29.2668529,9.66898996 29.8681313,9.07150987 29.8681313,8.33449498 C29.8681313,7.59748009 29.2668529,7 28.5252726,7 C27.9908686,7 27.5294623,7.31024339 27.3132621,7.75932764 C27.0970618,7.31024339 26.6356556,7 26.1012515,7 C25.3596176,7 24.7583929,7.59748009 24.7583929,8.33449498 C24.7583929,9.07150987 25.3596176,9.66898996 26.1012515,9.66898996 L26.1012515,9.66898996 Z M41.4730623,13.7522777 L28.5149594,13.7522777 L28.5149594,10.9515464 L26.1515282,10.9515464 L26.1515282,13.7522777 L4.89445131,13.7522777 L4.89445131,11.0052999 L2.53102004,11.0052999 L2.53102004,14.8272401 C2.53102004,15.9328959 1.62582586,16.8323989 0.513240587,16.8323989 L0,16.8323989 L0,19.18111 L0.513240587,19.18111 C2.48321427,19.18111 4.15324703,17.882166 4.7027448,16.1009889 L42.6547779,16.1009889 C43.3074072,16.1009889 43.8364935,15.5751978 43.8364935,14.9266333 L43.8364935,11.0052999 L41.4730623,11.0052999 L41.4730623,13.7522777 Z M51.6898534,14.8272401 L51.6898534,11.0052999 L49.3264221,11.0052999 L49.3264221,14.8272401 C49.3264221,15.9328959 48.4212816,16.8323989 47.3086964,16.8323989 L46.7954021,16.8323989 L46.7954021,19.18111 L47.3086964,19.18111 C49.7244454,19.18111 51.6898534,17.2279966 51.6898534,14.8272401 L51.6898534,14.8272401 Z M62.3195467,9.66898996 C63.0611806,9.66898996 63.6624053,9.07150987 63.6624053,8.33449498 C63.6624053,7.59748009 63.0611806,7 62.3195467,7 C61.5779127,7 60.976688,7.59748009 60.976688,8.33449498 C60.976688,9.07150987 61.5779127,9.66898996 62.3195467,9.66898996 L62.3195467,9.66898996 Z M107.440995,18.3900748 C107.440995,17.6530599 106.839716,17.0555798 106.098136,17.0555798 C105.563678,17.0555798 105.102326,17.3658232 104.886126,17.8149075 C104.669925,17.3658232 104.208519,17.0555798 103.674115,17.0555798 C102.932481,17.0555798 102.331256,17.6530599 102.331256,18.3900748 C102.331256,19.1270897 102.932481,19.7245698 103.674115,19.7245698 C104.208519,19.7245698 104.669925,19.4143264 104.886126,18.9652421 C105.102326,19.4143264 105.563678,19.7245698 106.098136,19.7245698 C106.839716,19.7245698 107.440995,19.1270897 107.440995,18.3900748 L107.440995,18.3900748 Z M62.3195467,19.2237605 C64.2178117,19.2237605 65.7622066,17.6890379 65.7622066,15.8025424 L65.7622066,11.0052999 L63.3987753,11.0052999 L63.3987753,15.8025424 C63.3987753,16.3939372 62.9145942,16.8750493 62.3195467,16.8750493 C61.7244991,16.8750493 61.240318,16.3939372 61.240318,15.8025424 L61.240318,12.3929077 L58.8768867,12.3929077 L58.8768867,15.8025424 C58.8768867,17.6890379 60.4212816,19.2237605 62.3195467,19.2237605 L62.3195467,19.2237605 Z M70.2368266,15.9117575 L72.6002578,15.9117575 L72.6002578,7.00432376 L70.2368266,7.00432376 L70.2368266,15.9117575 Z M106.306601,16.1009889 C106.959285,16.1009889 107.488317,15.5751978 107.488317,14.9266333 L107.488317,11.0052999 L105.124886,11.0052999 L105.124886,13.7522777 L81.7667723,13.7522777 L81.7667723,11.0052999 L79.403341,11.0052999 L79.403341,14.8272401 C79.403341,15.9328959 78.4981469,16.8323989 77.3855616,16.8323989 L76.8722673,16.8323989 L76.8722673,19.18111 L77.3855616,19.18111 C79.3555353,19.18111 81.025568,17.882166 81.5750658,16.1009889 L106.306601,16.1009889 Z M112.483268,15.9117041 L114.846699,15.9117041 L114.846699,7.00427038 L112.483268,7.00427038 L112.483268,15.9117041 Z" id="Fill-1" fill="#5071F9" fill-rule="nonzero"></path>
                <path d="M152.043513,30 C152.043513,30.6895966 152.052311,31.4040618 152.041313,32.0845309 C152.027422,32.940173 152.003285,33.7957603 151.969946,34.6509105 C151.961437,34.8684419 152.020997,34.9549626 152.267339,34.9657845 C153.769643,35.0318092 155.271369,35.1117711 156.773153,35.1891096 C156.846025,35.1929355 156.945349,35.154239 156.986213,35.230211 C157.03929,35.3288654 156.925901,35.370404 156.869814,35.4230926 C156.357161,35.9048319 155.838662,36.3809416 155.329192,36.8655777 C155.215803,36.9734689 155.097841,37.0088861 154.942199,36.9981735 C153.38485,36.8911021 151.827385,36.7856157 150.269399,36.6865241 C150.05848,36.6730787 149.998746,36.5939913 150,36.3969558 C150.008876,35.0673903 150.005808,33.7377155 150.00274,32.4080953 C150.002451,32.2753355 150.023288,32.1619787 150.121744,32.0573668 C150.742866,31.3971205 151.359242,30.7328843 151.978281,30.070889 C151.995587,30.0524152 152.014109,30.0280386 152.043513,30" id="Fill-3" fill="#FE9E00" fill-rule="evenodd"></path>
                <path d="M149.185786,33.0016275 C149.181445,32.8789144 149.044157,32.8080731 148.942182,32.8765031 C146.67092,34.3984123 143.93935,35.2867688 140.999972,35.2867688 C133.109635,35.2867688 126.713234,28.8903664 126.713234,21.0000269 C126.713181,13.128925 133.12898,6.7131243 141.000026,6.71317788 C148.890417,6.71317788 155.286764,13.1095802 155.286764,20.9999733 C155.286764,24.0785159 154.312723,26.9293161 152.656473,29.2618814 C152.637343,29.288889 152.627161,29.3212552 152.627644,29.3544253 L152.692966,33.8219827 C152.694091,33.9032198 152.757055,33.9701493 152.838078,33.9763117 L157.160093,34.3053862 C157.21159,34.309298 157.261907,34.2878635 157.294488,34.2478344 C160.144055,30.7471376 161.888348,26.310821 161.99477,21.4706233 C162.2537,9.69767623 152.865192,0.0492718724 141.089462,-0.00018524119 C129.420208,-0.0484698456 119.950945,9.42117006 119.99981,21.0905881 C120.049705,32.8128423 129.614459,42.1808823 141.335424,41.9973486 C146.016629,41.9240423 150.325837,40.3187525 153.7842,37.6612388 C153.900376,37.5719102 153.841538,37.3858579 153.695193,37.3793204 L149.477939,37.1912855 C149.396113,37.1876952 149.330844,37.1217302 149.327951,37.0399037 L149.185786,33.0016275 Z" id="Fill-5" fill="#5071F9" fill-rule="nonzero"></path>
            </g>
        </g>
    </g>
</svg>