<?xml version="1.0" encoding="UTF-8"?>
<svg width="20px" height="20px" viewBox="0 0 20 20" version="1.1" xmlns="http://www.w3.org/2000/svg" xmlns:xlink="http://www.w3.org/1999/xlink">
    <title>phone</title>
    <defs>
        <path d="M22,12 C22,6.4732666 17.5274963,2 12,2 C11.5684814,2 11.21875,2.34973145 11.21875,2.78125 C11.21875,3.21276855 11.5684814,3.5625 12,3.5625 C16.6524048,3.5625 20.4375,7.34759523 20.4375,12 C20.4375,13.9871521 19.7513123,15.8761902 18.4930725,17.3881836 L15.8670349,14.762146 C15.5618591,14.4569702 15.0671692,14.4569702 14.762146,14.762146 C14.0982361,15.4260559 13.2374878,15.8215637 12.3114319,15.8941955 L8.10595703,11.6885681 C8.17843629,10.7625122 8.5739441,9.90176391 9.23785398,9.23785398 C9.54272461,8.9329834 9.54302977,8.43814086 9.23785398,8.13311766 L6.03381348,4.92892457 C5.7286377,4.62390137 5.23410035,4.62390137 4.92892457,4.92892457 C3.04019164,6.81765746 2,9.32894898 2,12 C2,12.2072144 2.08224488,12.4058838 2.22888184,12.5523682 L11.4474793,21.7711182 C11.5939636,21.9177551 11.792633,22 11.9998474,22 L12,22 C17.5296326,22 22,17.5162048 22,12 Z M12.317688,20.4317016 L3.56829836,11.6821594 C3.63711547,9.80853273 4.31475828,8.04217531 5.50646973,6.61135863 L7.61950684,8.72439574 C6.9131775,9.66479492 6.53125,10.802948 6.53125,12 C6.53125,12.2072144 6.61349488,12.4058838 6.76013184,12.5523682 L11.4476318,17.2398682 C11.5941162,17.3865051 11.7927856,17.46875 12,17.46875 C13.197052,17.46875 14.3352051,17.0868225 15.2756043,16.3804932 L17.3887939,18.4935303 C15.9578247,19.6852417 14.1914673,20.3628845 12.317688,20.4317016 Z" id="path-1"></path>
    </defs>
    <g id="Page-1" stroke="none" stroke-width="1" fill="none" fill-rule="evenodd">
        <g id="Game-assets" transform="translate(-570.000000, -1043.000000)">
            <g id="phone" transform="translate(568.000000, 1041.000000)">
                <mask id="mask-2" fill="white">
                    <use xlink:href="#path-1"></use>
                </mask>
                <use id="Mask" fill="#5071F9" fill-rule="nonzero" xlink:href="#path-1"></use>
            </g>
        </g>
    </g>
</svg>