<?xml version="1.0" encoding="UTF-8"?>
<svg width="197px" height="367px" viewBox="0 0 197 367" version="1.1" xmlns="http://www.w3.org/2000/svg" xmlns:xlink="http://www.w3.org/1999/xlink">
    <title>Group 19</title>
    <defs>
        <radialGradient cx="50%" cy="50%" fx="50%" fy="50%" r="47.6899689%" id="radialGradient-1">
            <stop stop-color="#BBC9FC" offset="0%"></stop>
            <stop stop-color="#5071F9" offset="100%"></stop>
        </radialGradient>
        <path d="M136.895233,154.793348 C136.874874,154.217765 136.230925,153.885486 135.752614,154.206455 C125.099314,161.344934 112.286952,165.511749 98.4998709,165.511749 C61.4904309,165.511749 31.4882656,135.509576 31.4882656,98.5001263 C31.4880143,61.5809099 61.5811668,31.4877497 98.5001223,31.488001 C135.509814,31.488001 165.511728,61.490174 165.511728,98.499875 C165.511728,112.939706 160.943012,126.311316 153.17441,137.252158 C153.084679,137.378837 153.036924,137.53065 153.039186,137.686233 L153.345576,158.641205 C153.350855,159.022245 153.646186,159.336176 154.026221,159.365081 L174.298532,160.908597 C174.540076,160.926946 174.776089,160.826407 174.928908,160.638652 C188.294733,144.218717 196.476297,123.41028 196.97547,100.707447 C198.189974,45.4867195 154.153402,0.231108544 98.9196187,-0.00086886939 C44.1852596,-0.227346657 -0.230090075,44.1897738 -0.000889953013,98.9249011 C0.233140582,153.907856 45.0963888,197.848424 100.073297,196.987564 C122.03038,196.643722 142.242619,189.114149 158.463986,176.649144 C159.008904,176.23015 158.732926,175.357477 158.0465,175.326812 L138.265571,174.444839 C137.881766,174.427999 137.575626,174.118592 137.562054,173.734786 L136.895233,154.793348 Z" id="path-2"></path>
    </defs>
    <g id="Page-1" stroke="none" stroke-width="1" fill="none" fill-rule="evenodd">
        <g id="Game-assets" transform="translate(-169.000000, -672.000000)">
            <g id="Group-19" transform="translate(169.000000, 672.000000)">
                <path d="M95.999776,15.8385662 C93.7011295,15.8385662 91.8318151,17.7236632 91.8318151,20.0403422 L91.8318151,95.9596578 C91.8318151,98.2763368 93.7011295,100.161434 95.999776,100.161434 C98.2984225,100.161434 100.167737,98.2763368 100.167737,95.9596578 L100.167737,20.0403422 C100.167737,17.7236632 98.2984225,15.8385662 95.999776,15.8385662 M95.999776,101 C93.2429533,101 90.999776,98.7392254 90.999776,95.9596578 L90.999776,20.0403422 C90.999776,17.2607746 93.2429533,15 95.999776,15 C98.7565987,15 100.999776,17.2607746 100.999776,20.0403422 L100.999776,95.9596578 C100.999776,98.7392254 98.7565987,101 95.999776,101" id="Fill-6" fill="#9AB4F7"></path>
                <path d="M94.9930356,119 C94.6743373,119 94.3510698,118.9762 94.0243755,118.929733 C90.6272111,118.442397 88.1495885,115.632847 88.001091,112.09796 C87.9668224,111.281955 88.6065037,110.592885 89.428951,110.558884 C90.2251257,110.529418 90.9459094,111.158421 90.980178,111.974426 C91.082984,114.414507 92.8512457,115.772248 94.4504489,116.002316 C96.3729195,116.279984 97.9812609,115.085444 98.7637282,112.813097 C100.226999,108.563073 94.942775,105.506455 94.716602,105.378388 C94.252833,105.115453 93.9626919,104.623583 93.9626919,104.09318 L93.9626919,97.4790086 C93.9626919,96.6618705 94.6309304,96 95.4533777,96 C96.2769673,96 96.9440635,96.6618705 96.9440635,97.4790086 L96.9440635,103.272642 C99.6124482,105.062186 103.233501,108.980142 101.585179,113.768503 C100.46231,117.031389 97.9355694,119 94.9930356,119" id="Fill-10" fill="#FE7400"></path>
                <path d="M95.999776,100 L95.999776,100 C93.249292,100 90.999776,97.942239 90.999776,95.4262138 L90.999776,82.5737862 C90.999776,80.057761 93.249292,78 95.999776,78 C98.75026,78 100.999776,80.057761 100.999776,82.5737862 L100.999776,95.4262138 C100.999776,97.942239 98.75026,100 95.999776,100" id="Fill-8" fill="#3B568B"></path>
                <path d="M98.6598617,28 L93.3396903,28 C90.9431491,28 88.999776,25.9471875 88.999776,23.4131586 L88.999776,4.58684136 C88.999776,2.05281249 90.9431491,0 93.3396903,0 L98.6598617,0 C101.056403,0 102.999776,2.05281249 102.999776,4.58684136 L102.999776,23.4131586 C102.999776,25.9471875 101.056403,28 98.6598617,28" id="Fill-12" fill="#3B568B"></path>
                <g id="Group-2" transform="translate(0.000000, 116.246917)">
                    <path d="M148.757912,193 C148.757912,196.250956 148.795617,199.619149 148.748485,202.827074 C148.68895,206.860815 148.585509,210.894299 148.442625,214.925721 C148.40616,215.951226 148.661416,216.35911 149.717167,216.410127 C156.155615,216.721386 162.591582,217.09835 169.027797,217.462945 C169.340107,217.480982 169.765781,217.298555 169.940913,217.656709 C170.168386,218.121794 169.682432,218.317619 169.44206,218.566008 C167.244976,220.837064 165.022837,223.081582 162.839396,225.366295 C162.353442,225.874925 161.847892,226.041892 161.180853,225.991389 C154.506499,225.486624 147.831648,224.989331 141.154565,224.522185 C140.250628,224.4588 139.994628,224.085959 140,223.157078 C140.038038,216.889126 140.024891,210.620659 140.011744,204.352449 C140.010504,203.726582 140.099806,203.192185 140.521759,202.699015 C143.183712,199.586425 145.825323,196.455026 148.478346,193.334191 C148.552516,193.2471 148.631896,193.132182 148.757912,193" id="Fill-3" fill="#FE9E00"></path>
                    <g id="Oval" transform="translate(0.000000, 53.000000)">
                        <mask id="mask-3" fill="white">
                            <use xlink:href="#path-2"></use>
                        </mask>
                        <use id="Mask-Copy" fill="url(#radialGradient-1)" fill-rule="nonzero" xlink:href="#path-2"></use>
                    </g>
                    <line x1="95.499776" y1="0" x2="95.5" y2="84.5" id="Stroke-14" stroke="#3B568B" stroke-width="1.5" stroke-linecap="round" stroke-linejoin="round"></line>
                </g>
            </g>
        </g>
    </g>
</svg>