<?xml version="1.0" encoding="UTF-8"?>
<svg width="20px" height="20px" viewBox="0 0 20 20" version="1.1" xmlns="http://www.w3.org/2000/svg" xmlns:xlink="http://www.w3.org/1999/xlink">
    <title>social</title>
    <defs>
        <path d="M18.875,14.2660828 L18.875,9.73391723 C20.6558533,9.37106324 22,7.7926941 22,5.90625 C22,3.75231934 20.2476807,2 18.09375,2 C15.9398193,2 14.1875,3.75231934 14.1875,5.90625 C14.1875,6.25643922 14.2340393,6.59594727 14.3210144,6.91912844 L8.97875977,9.59033203 C8.26296996,8.6796875 7.15167234,8.09375 5.90625,8.09375 C3.75231934,8.09375 2,9.84606934 2,12 C2,14.1539307 3.75231934,15.90625 5.90625,15.90625 C7.15167234,15.90625 8.26296996,15.3203125 8.97875977,14.409668 L14.3210144,17.0808716 C14.2340393,17.4040527 14.1875,17.7435608 14.1875,18.09375 C14.1875,20.2476807 15.9398193,22 18.09375,22 C20.2476807,22 22,20.2476807 22,18.09375 C22,16.2073059 20.6558533,14.6289368 18.875,14.2660828 Z M5.90625,14.34375 C4.61383055,14.34375 3.5625,13.2924195 3.5625,12 C3.5625,10.7075805 4.61383055,9.65625 5.90625,9.65625 C6.53704836,9.65625 7.10986328,9.90710449 7.53161621,10.3139038 L5.55682375,11.3011475 C5.17092895,11.4941711 5.01452637,11.9633789 5.20755004,12.3494262 C5.40057375,12.7353211 5.86993406,12.8915711 6.25567625,12.6987 L8.23153687,11.7108459 C8.24328613,11.805603 8.25,11.9020386 8.25,12 C8.25,13.2924195 7.19866945,14.34375 5.90625,14.34375 Z M18.09375,3.5625 C19.3861695,3.5625 20.4375,4.61383055 20.4375,5.90625 C20.4375,6.92477418 19.7842712,7.79315187 18.875,8.11557008 L18.875,5.90625 C18.875,5.47473145 18.5252686,5.125 18.09375,5.125 C17.6622314,5.125 17.3125,5.47473145 17.3125,5.90625 L17.3125,8.11557008 C16.4032288,7.79315187 15.75,6.92477418 15.75,5.90625 C15.75,4.61383055 16.8013305,3.5625 18.09375,3.5625 Z M15.0213928,15.684082 L9.6791382,13.0128784 C9.7659607,12.6896973 9.8125,12.3501892 9.8125,12 C9.8125,11.6498108 9.7659607,11.3103027 9.67898559,10.9871216 L15.0212402,8.31591797 C15.583374,9.03094484 16.3891907,9.54577637 17.3125,9.73391723 L17.3125,14.2660828 C16.3891907,14.4542236 15.583374,14.9690552 15.0213928,15.684082 Z M18.09375,20.4375 C16.8013305,20.4375 15.75,19.3861695 15.75,18.09375 C15.75,17.9957886 15.7567139,17.899353 15.7684631,17.8045959 L17.7443237,18.79245 C18.1305237,18.9856262 18.5997314,18.8286133 18.79245,18.4431762 C18.9854736,18.0571289 18.8290711,17.5879211 18.4431762,17.3948975 L16.4683838,16.4076538 C16.8901367,16.0008545 17.4629516,15.75 18.09375,15.75 C19.3861695,15.75 20.4375,16.8013305 20.4375,18.09375 C20.4375,19.3861695 19.3861695,20.4375 18.09375,20.4375 L18.09375,20.4375 Z" id="path-1"></path>
    </defs>
    <g id="Page-1" stroke="none" stroke-width="1" fill="none" fill-rule="evenodd">
        <g id="Game-assets" transform="translate(-527.000000, -1043.000000)">
            <g id="Social" transform="translate(525.000000, 1041.000000)">
                <mask id="mask-2" fill="white">
                    <use xlink:href="#path-1"></use>
                </mask>
                <use id="Mask" fill="#2873F0" fill-rule="nonzero" xlink:href="#path-1"></use>
                <rect id="Rectangle" fill="#2873F0" fill-rule="evenodd" mask="url(#mask-2)" x="0" y="0" width="24" height="24"></rect>
            </g>
        </g>
    </g>
</svg>